# Blender v2.78 (sub 0) OBJ File: 'Cactus.blend'
# www.blender.org
mtllib Cactus.mtl
o Cylinder
v 0.000000 -0.746330 -0.746330
v 0.000000 6.269746 -0.746330
v 0.527735 -0.746330 -0.527735
v 0.527735 6.269746 -0.527735
v 0.746330 -0.746330 0.000000
v 0.746330 6.269746 0.000000
v 0.527735 -0.746330 0.527735
v 0.527735 6.269746 0.527735
v -0.000000 -0.746330 0.746330
v -0.000000 6.269746 0.746330
v -0.527735 -0.746330 0.527735
v -0.527735 6.269746 0.527735
v -0.746330 -0.746330 -0.000000
v -0.746330 6.269746 -0.000000
v -0.527735 -0.746330 -0.527735
v -0.527735 6.269746 -0.527735
v 0.000000 2.099079 -0.746330
v 0.527735 2.099079 -0.527735
v 0.746330 2.099079 0.000000
v 0.527735 2.099079 0.527735
v -0.000000 1.745521 0.746330
v -0.527735 1.745521 0.527735
v -0.746330 2.099079 -0.000000
v -0.527735 2.099079 -0.527735
v 0.527735 1.144113 -0.527735
v 0.746330 1.144113 0.000000
v 0.527735 1.144113 0.527735
v -0.000000 1.144113 0.746330
v -0.527735 1.144113 0.527735
v -0.746330 1.144113 -0.000000
v -0.527735 1.144113 -0.527735
v 0.000000 1.144113 -0.746330
v 1.953517 2.099079 -1.426851
v 2.172112 2.099079 -0.899116
v 1.953517 1.144113 -1.426851
v 2.172112 1.144113 -0.899116
v 1.953517 2.099079 -1.426851
v 2.172112 2.099079 -0.899116
v 1.953517 1.144113 -1.426851
v 2.172112 1.144113 -0.899116
v 2.769988 2.099079 -1.765045
v 2.988583 2.099079 -1.237310
v 2.484902 1.571742 -1.765045
v 2.703497 1.571742 -1.237310
v 1.953517 3.817296 -1.426851
v 2.172112 3.817296 -0.899116
v 2.769988 3.817296 -1.765045
v 2.988583 3.817296 -1.237310
v 2.356472 4.381490 -1.353062
v 2.404867 4.381490 -1.236226
v 2.537232 4.381490 -1.427935
v 2.585628 4.381490 -1.311099
v 0.109610 6.617173 -0.380744
v 0.378837 6.617173 -0.269226
v 0.490354 6.617173 0.000000
v 0.378837 6.617173 0.269226
v 0.109610 6.617173 0.380744
v -0.159616 6.617173 0.269226
v -0.271134 6.617173 -0.000000
v -0.159616 6.617173 -0.269226
v 0.666772 6.443460 0.000000
v 0.487531 6.443460 0.432726
v -0.377921 6.443460 0.432726
v -0.557162 6.443460 -0.000000
v 0.054805 6.443460 0.611967
v -0.377921 6.443460 -0.432726
v 0.487531 6.443460 -0.432726
v 0.054805 6.443460 -0.611967
v -0.343179 1.745521 1.574837
v -0.870914 1.745521 1.356242
v -0.343179 1.144113 1.574837
v -0.870914 1.144113 1.356242
v -0.506941 2.099079 1.970193
v -1.034676 2.099079 1.751598
v -0.506941 1.144113 1.970193
v -1.034676 1.144113 1.751598
v -0.343179 2.865063 1.574837
v -0.870914 2.865063 1.356242
v -0.506941 2.865063 1.970193
v -1.034676 2.865063 1.751598
v -0.579537 3.014929 1.635255
v -0.746505 3.014929 1.566094
v -0.631349 3.014929 1.760340
v -0.798317 3.014929 1.691180
vn 0.9239 0.0000 -0.3827
vn 0.3827 0.0000 0.9239
vn -0.9239 0.0000 0.3827
vn -0.3827 0.0000 -0.9239
vn 0.0000 -1.0000 -0.0000
vn 0.5334 0.0000 0.8459
vn 0.0000 0.0000 1.0000
vn -0.5334 0.0000 -0.8459
vn 0.0000 1.0000 0.0000
vn 0.4694 -0.0903 0.8783
vn 0.8265 -0.4468 -0.3424
vn 0.5243 -0.8233 -0.2172
vn -0.4694 0.0903 -0.8783
vn -0.3560 0.3667 -0.8595
vn 0.7888 0.5206 -0.3267
vn 0.3560 0.3667 0.8595
vn -0.7888 0.5206 0.3267
vn -0.5075 0.8356 0.2102
vn 0.2563 0.7427 0.6187
vn 0.6737 0.6842 -0.2791
vn -0.2277 0.8037 -0.5498
vn -0.2937 0.6411 -0.7090
vn 0.8508 0.3897 -0.3524
vn 0.3290 0.5106 0.7944
vn -0.6513 0.7092 0.2698
vn 0.9239 0.0000 0.3827
vn -0.9239 0.0000 -0.3827
vn -0.3827 0.0000 0.9239
vn -0.5625 0.7933 -0.2330
vn 0.3827 0.0000 -0.9239
vn -0.2739 0.6985 0.6612
vn 0.5625 0.7933 0.2330
vn 0.2739 0.6985 -0.6612
vn 0.6737 0.6842 0.2791
vn -0.5075 0.8356 -0.2102
vn -0.2277 0.8037 0.5498
vn 0.2563 0.7427 -0.6187
vn 0.3290 0.5106 -0.7944
vn -0.2937 0.6411 0.7090
vn -0.6513 0.7092 -0.2698
vn 0.8508 0.3897 0.3524
usemtl Green1
s off
f 18//1 4//1 6//1 19//1
f 20//2 8//2 10//2 21//2
f 22//3 12//3 14//3 23//3
f 24//4 16//4 2//4 17//4
f 1//5 3//5 5//5 7//5 9//5 11//5 13//5 15//5
f 31//4 24//4 17//4 32//4
f 29//3 22//3 23//3 30//3
f 29//5 28//5 71//5 72//5
f 27//2 20//2 21//2 28//2
f 19//6 26//6 36//6 34//6
f 3//1 25//1 26//1 5//1
f 7//2 27//2 28//2 9//2
f 11//3 29//3 30//3 13//3
f 15//4 31//4 32//4 1//4
f 36//7 35//7 39//7 40//7
f 25//8 18//8 33//8 35//8
f 18//9 19//9 34//9 33//9
f 26//5 25//5 35//5 36//5
f 38//10 40//10 44//10 42//10
f 35//7 33//7 37//7 39//7
f 34//7 36//7 40//7 38//7
f 33//7 34//7 38//7 37//7
f 43//11 41//11 42//11 44//11
f 42//1 41//1 47//1 48//1
f 40//12 39//12 43//12 44//12
f 39//13 37//13 41//13 43//13
f 47//14 45//14 49//14 51//14
f 38//2 42//2 48//2 46//2
f 37//3 38//3 46//3 45//3
f 41//4 37//4 45//4 47//4
f 49//9 50//9 52//9 51//9
f 48//15 47//15 51//15 52//15
f 46//16 48//16 52//16 50//16
f 45//17 46//17 50//17 49//17
f 64//18 63//18 58//18 59//18
f 65//19 62//19 56//19 57//19
f 61//20 67//20 54//20 55//20
f 68//21 66//21 60//21 53//21
f 2//22 16//22 66//22 68//22
f 6//23 4//23 67//23 61//23
f 10//24 8//24 62//24 65//24
f 14//25 12//25 63//25 64//25
f 71//26 69//26 73//26 75//26
f 21//9 22//9 70//9 69//9
f 22//27 29//27 72//27 70//27
f 28//26 21//26 69//26 71//26
f 75//28 73//28 74//28 76//28
f 70//27 72//27 76//27 74//27
f 73//26 69//26 77//26 79//26
f 72//5 71//5 75//5 76//5
f 78//29 80//29 84//29 82//29
f 74//28 73//28 79//28 80//28
f 70//27 74//27 80//27 78//27
f 69//30 70//30 78//30 77//30
f 81//9 82//9 84//9 83//9
f 80//31 79//31 83//31 84//31
f 79//32 77//32 81//32 83//32
f 77//33 78//33 82//33 81//33
usemtl Green2
f 17//30 2//30 4//30 18//30
f 19//26 6//26 8//26 20//26
f 21//28 10//28 12//28 22//28
f 62//34 61//34 55//34 56//34
f 23//27 14//27 16//27 24//27
f 30//27 23//27 24//27 31//27
f 26//26 19//26 20//26 27//26
f 32//30 17//30 18//30 25//30
f 1//30 32//30 25//30 3//30
f 5//26 26//26 27//26 7//26
f 9//28 28//28 29//28 11//28
f 13//27 30//27 31//27 15//27
f 54//9 53//9 60//9 59//9 58//9 57//9 56//9 55//9
f 66//35 64//35 59//35 60//35
f 63//36 65//36 57//36 58//36
f 67//37 68//37 53//37 54//37
f 4//38 2//38 68//38 67//38
f 12//39 10//39 65//39 63//39
f 16//40 14//40 64//40 66//40
f 8//41 6//41 61//41 62//41
